<svg xmlns="http://www.w3.org/2000/svg" viewBox="0 0 256 256" width="256" height="256">
  <defs>
    <linearGradient id="bg-grad" x1="0%" y1="0%" x2="100%" y2="100%">
      <stop offset="0%" stop-color="hsl(160, 60%, 60%)" />
      <stop offset="100%" stop-color="hsl(260, 50%, 70%)" />
    </linearGradient>
  </defs>
  <rect width="256" height="256" rx="80" fill="url(#bg-grad)" />
  <g transform="translate(48, 48) scale(0.625)">
    <!-- Phosphor Wallet Duotone -->
    <path d="M216,72H56a16,16,0,0,0-16,16V184a16,16,0,0,0,16,16H200a16,16,0,0,0,16-16V88A16,16,0,0,0,216,72Z" opacity="0.1" fill="hsl(240, 10%, 6%)" />
    <path d="M216,72H56a16,16,0,0,0-16,16V184a16,16,0,0,0,16,16H200a16,16,0,0,0,16-16V88A16,16,0,0,0,216,72Z" fill="none" stroke="hsl(240, 10%, 6%)" stroke-linecap="round" stroke-linejoin="round" stroke-width="16" />
    <path d="M136,136H216v48H136a24,24,0,0,1,0-48Z" opacity="0.2" fill="hsl(240, 10%, 6%)" />
    <path d="M136,136H216v48H136a24,24,0,0,1,0-48Z" fill="none" stroke="hsl(240, 10%, 6%)" stroke-linecap="round" stroke-linejoin="round" stroke-width="16" />
    <circle cx="176" cy="160" r="12" fill="hsl(240, 10%, 6%)" />
  </g>
</svg>
